STARTFONT 2.1
FONT -Monotype-Nimrod-Regular-R-Normal--12-120-75-75-P-68-iso8859-5
SIZE 12 75 75
FONTBOUNDINGBOX 15 16 -1 -3

STARTPROPERTIES 24
FOUNDRY "Monotype"
FAMILY_NAME "Nimrod"
WEIGHT_NAME "Regular"
SLANT "R"
SETWIDTH_NAME "Normal"
ADD_STYLE_NAME ""
PIXEL_SIZE 12
POINT_SIZE 120
RESOLUTION_X 75
RESOLUTION_Y 75
SPACING "P"
AVERAGE_WIDTH 68
CHARSET_REGISTRY "iso8859"
CHARSET_ENCODING "5"
FACE_NAME "Nimrod ISO Latin Cyrillic"
_DEC_DEVICE_FONTNAMES "PS=nimrod-latcyrillic"
COPYRIGHT "Copyright (c) 1994 Monotype Typography Ltd."
CAP_HEIGHT 11
X_HEIGHT 8
WEIGHT 10
QUAD_WIDTH 9
DEFAULT_CHAR 160
FONT_DESCENT 3
FONT_ASCENT 13
ENDPROPERTIES

CHARS 191

STARTCHAR space
ENCODING 32
SWIDTH 250 0
DWIDTH 3 0
BBX 0 0 0 0
BITMAP
ENDCHAR

STARTCHAR exclam
ENCODING 33
SWIDTH 281 0
DWIDTH 4 0
BBX 1 10 2 0
BITMAP
80
80
80
80
80
80
80
00
80
80
ENDCHAR

STARTCHAR quotedbl
ENCODING 34
SWIDTH 406 0
DWIDTH 5 0
BBX 3 4 1 6
BITMAP
A0
A0
A0
A0
ENDCHAR

STARTCHAR numbersign
ENCODING 35
SWIDTH 667 0
DWIDTH 9 0
BBX 8 10 1 0
BITMAP
12
12
12
7F
24
24
FE
48
48
48
ENDCHAR

STARTCHAR dollar
ENCODING 36
SWIDTH 500 0
DWIDTH 7 0
BBX 5 12 1 -2
BITMAP
20
70
A8
A8
60
30
28
A8
A8
70
20
20
ENDCHAR

STARTCHAR percent
ENCODING 37
SWIDTH 1000 0
DWIDTH 13 0
BBX 10 10 2 0
BITMAP
6100
9200
9200
9400
6400
0980
1240
1240
2240
2180
ENDCHAR

STARTCHAR ampersand
ENCODING 38
SWIDTH 781 0
DWIDTH 10 0
BBX 9 10 1 0
BITMAP
1800
2400
2400
1800
3380
4900
8A00
8600
8680
7900
ENDCHAR

STARTCHAR quoteright
ENCODING 39
SWIDTH 281 0
DWIDTH 4 0
BBX 2 4 1 6
BITMAP
40
40
40
80
ENDCHAR

STARTCHAR parenleft
ENCODING 40
SWIDTH 354 0
DWIDTH 5 0
BBX 3 12 1 -2
BITMAP
20
40
40
80
80
80
80
80
80
40
40
20
ENDCHAR

STARTCHAR parenright
ENCODING 41
SWIDTH 354 0
DWIDTH 5 0
BBX 3 12 1 -2
BITMAP
80
40
40
20
20
20
20
20
20
40
40
80
ENDCHAR

STARTCHAR asterisk
ENCODING 42
SWIDTH 469 0
DWIDTH 6 0
BBX 5 5 1 5
BITMAP
20
20
D8
20
50
ENDCHAR

STARTCHAR plus
ENCODING 43
SWIDTH 667 0
DWIDTH 9 0
BBX 7 7 1 1
BITMAP
10
10
10
FE
10
10
10
ENDCHAR

STARTCHAR comma
ENCODING 44
SWIDTH 281 0
DWIDTH 4 0
BBX 2 4 1 -2
BITMAP
40
40
40
80
ENDCHAR

STARTCHAR minus
ENCODING 45
SWIDTH 667 0
DWIDTH 9 0
BBX 7 1 1 4
BITMAP
FE
ENDCHAR

STARTCHAR period
ENCODING 46
SWIDTH 281 0
DWIDTH 4 0
BBX 1 2 2 0
BITMAP
80
80
ENDCHAR

STARTCHAR slash
ENCODING 47
SWIDTH 510 0
DWIDTH 7 0
BBX 6 10 1 0
BITMAP
04
08
08
10
10
20
40
40
80
80
ENDCHAR

STARTCHAR zero
ENCODING 48
SWIDTH 500 0
DWIDTH 7 0
BBX 5 10 1 0
BITMAP
70
88
88
88
88
88
88
88
88
70
ENDCHAR

STARTCHAR one
ENCODING 49
SWIDTH 500 0
DWIDTH 7 0
BBX 3 10 2 0
BITMAP
40
C0
40
40
40
40
40
40
40
E0
ENDCHAR

STARTCHAR two
ENCODING 50
SWIDTH 500 0
DWIDTH 7 0
BBX 5 10 1 0
BITMAP
70
88
88
08
10
10
20
48
88
F8
ENDCHAR

STARTCHAR three
ENCODING 51
SWIDTH 500 0
DWIDTH 7 0
BBX 5 10 1 0
BITMAP
70
88
08
08
70
08
08
88
88
70
ENDCHAR

STARTCHAR four
ENCODING 52
SWIDTH 500 0
DWIDTH 7 0
BBX 6 10 1 0
BITMAP
08
18
28
28
48
88
FC
08
08
1C
ENDCHAR

STARTCHAR five
ENCODING 53
SWIDTH 500 0
DWIDTH 7 0
BBX 6 10 1 0
BITMAP
7C
40
40
70
88
04
04
84
88
70
ENDCHAR

STARTCHAR six
ENCODING 54
SWIDTH 500 0
DWIDTH 7 0
BBX 6 10 1 0
BITMAP
38
44
80
80
B8
C4
84
84
84
78
ENDCHAR

STARTCHAR seven
ENCODING 55
SWIDTH 500 0
DWIDTH 7 0
BBX 6 10 1 0
BITMAP
FC
84
88
08
10
10
20
20
20
20
ENDCHAR

STARTCHAR eight
ENCODING 56
SWIDTH 500 0
DWIDTH 7 0
BBX 5 10 1 0
BITMAP
70
88
88
88
70
88
88
88
88
70
ENDCHAR

STARTCHAR nine
ENCODING 57
SWIDTH 500 0
DWIDTH 7 0
BBX 6 10 1 0
BITMAP
78
84
84
84
8C
74
04
04
88
70
ENDCHAR

STARTCHAR colon
ENCODING 58
SWIDTH 281 0
DWIDTH 4 0
BBX 1 7 2 0
BITMAP
80
80
00
00
00
80
80
ENDCHAR

STARTCHAR semicolon
ENCODING 59
SWIDTH 281 0
DWIDTH 4 0
BBX 2 9 1 -2
BITMAP
40
40
00
00
00
40
40
40
80
ENDCHAR

STARTCHAR less
ENCODING 60
SWIDTH 667 0
DWIDTH 9 0
BBX 7 7 1 1
BITMAP
02
0C
30
C0
30
0C
02
ENDCHAR

STARTCHAR equal
ENCODING 61
SWIDTH 667 0
DWIDTH 9 0
BBX 7 3 1 3
BITMAP
FE
00
FE
ENDCHAR

STARTCHAR greater
ENCODING 62
SWIDTH 667 0
DWIDTH 9 0
BBX 7 7 1 1
BITMAP
80
60
18
06
18
60
80
ENDCHAR

STARTCHAR question
ENCODING 63
SWIDTH 448 0
DWIDTH 6 0
BBX 5 10 1 0
BITMAP
70
88
88
08
10
20
20
00
20
20
ENDCHAR

STARTCHAR at
ENCODING 64
SWIDTH 917 0
DWIDTH 12 0
BBX 11 12 1 -2
BITMAP
0F00
30C0
4040
4520
8B20
9140
9240
9680
4B20
4040
3180
0E00
ENDCHAR

STARTCHAR A
ENCODING 65
SWIDTH 802 0
DWIDTH 9 0
BBX 9 10 0 0
BITMAP
0800
0800
1400
1400
2200
2200
3E00
4100
4100
E380
ENDCHAR

STARTCHAR B
ENCODING 66
SWIDTH 729 0
DWIDTH 9 0
BBX 7 10 1 0
BITMAP
FC
42
42
42
7C
42
42
42
42
FC
ENDCHAR

STARTCHAR C
ENCODING 67
SWIDTH 719 0
DWIDTH 9 0
BBX 8 10 1 0
BITMAP
1F
61
41
80
80
80
80
41
62
1C
ENDCHAR

STARTCHAR D
ENCODING 68
SWIDTH 771 0
DWIDTH 10 0
BBX 8 10 1 0
BITMAP
F8
46
42
41
41
41
41
42
46
F8
ENDCHAR

STARTCHAR E
ENCODING 69
SWIDTH 719 0
DWIDTH 9 0
BBX 7 10 1 0
BITMAP
FE
42
42
48
78
48
40
42
42
FE
ENDCHAR

STARTCHAR F
ENCODING 70
SWIDTH 667 0
DWIDTH 9 0
BBX 7 10 1 0
BITMAP
FE
42
42
48
78
48
40
40
40
E0
ENDCHAR

STARTCHAR G
ENCODING 71
SWIDTH 792 0
DWIDTH 10 0
BBX 9 10 1 0
BITMAP
1F00
6100
4100
8000
8000
8380
8100
4100
6200
1C00
ENDCHAR

STARTCHAR H
ENCODING 72
SWIDTH 813 0
DWIDTH 11 0
BBX 9 10 1 0
BITMAP
E380
4100
4100
4100
7F00
4100
4100
4100
4100
E380
ENDCHAR

STARTCHAR I
ENCODING 73
SWIDTH 385 0
DWIDTH 5 0
BBX 3 10 1 0
BITMAP
E0
40
40
40
40
40
40
40
40
E0
ENDCHAR

STARTCHAR J
ENCODING 74
SWIDTH 573 0
DWIDTH 7 0
BBX 6 10 0 0
BITMAP
1C
08
08
08
08
08
48
C8
88
70
ENDCHAR

STARTCHAR K
ENCODING 75
SWIDTH 781 0
DWIDTH 10 0
BBX 9 10 1 0
BITMAP
E700
4200
4400
4800
5000
6800
4400
4200
4100
E380
ENDCHAR

STARTCHAR L
ENCODING 76
SWIDTH 677 0
DWIDTH 9 0
BBX 7 10 1 0
BITMAP
E0
40
40
40
40
40
40
42
42
FE
ENDCHAR

STARTCHAR M
ENCODING 77
SWIDTH 979 0
DWIDTH 13 0
BBX 11 10 1 0
BITMAP
C060
60C0
60C0
5140
5140
4A40
4A40
4A40
4440
E4E0
ENDCHAR

STARTCHAR N
ENCODING 78
SWIDTH 823 0
DWIDTH 11 0
BBX 10 10 1 0
BITMAP
C1C0
6080
5080
4880
4880
4480
4480
4280
4180
E080
ENDCHAR

STARTCHAR O
ENCODING 79
SWIDTH 792 0
DWIDTH 11 0
BBX 9 10 1 0
BITMAP
1C00
6300
4100
8080
8080
8080
8080
4100
6300
1C00
ENDCHAR

STARTCHAR P
ENCODING 80
SWIDTH 667 0
DWIDTH 9 0
BBX 7 10 1 0
BITMAP
FC
42
42
42
7C
40
40
40
40
E0
ENDCHAR

STARTCHAR Q
ENCODING 81
SWIDTH 792 0
DWIDTH 11 0
BBX 10 11 1 -1
BITMAP
1C00
6300
4100
8080
8080
9880
A480
4500
6300
1E00
01C0
ENDCHAR

STARTCHAR R
ENCODING 82
SWIDTH 729 0
DWIDTH 9 0
BBX 8 10 1 0
BITMAP
FC
42
42
42
7C
48
44
44
42
E3
ENDCHAR

STARTCHAR S
ENCODING 83
SWIDTH 615 0
DWIDTH 8 0
BBX 6 10 1 0
BITMAP
78
84
84
80
60
18
04
84
84
78
ENDCHAR

STARTCHAR T
ENCODING 84
SWIDTH 698 0
DWIDTH 9 0
BBX 9 10 0 0
BITMAP
7F00
C980
8880
0800
0800
0800
0800
0800
0800
1C00
ENDCHAR

STARTCHAR U
ENCODING 85
SWIDTH 771 0
DWIDTH 10 0
BBX 9 10 1 0
BITMAP
E380
4100
4100
4100
4100
4100
4100
4100
2200
1C00
ENDCHAR

STARTCHAR V
ENCODING 86
SWIDTH 792 0
DWIDTH 9 0
BBX 9 10 0 0
BITMAP
E380
4100
4100
2200
2200
2200
1400
1400
0800
0800
ENDCHAR

STARTCHAR W
ENCODING 87
SWIDTH 1010 0
DWIDTH 11 0
BBX 11 10 0 0
BITMAP
EEE0
4440
4440
4440
2A80
2A80
2A80
3300
1100
1100
ENDCHAR

STARTCHAR X
ENCODING 88
SWIDTH 729 0
DWIDTH 9 0
BBX 9 10 0 0
BITMAP
E380
4100
2200
1400
0800
0800
1400
2200
4100
E380
ENDCHAR

STARTCHAR Y
ENCODING 89
SWIDTH 729 0
DWIDTH 9 0
BBX 9 10 0 0
BITMAP
E380
4100
2200
2200
1400
0800
0800
0800
0800
1C00
ENDCHAR

STARTCHAR Z
ENCODING 90
SWIDTH 625 0
DWIDTH 9 0
BBX 7 10 1 0
BITMAP
FE
82
84
08
10
10
20
42
82
FE
ENDCHAR

STARTCHAR bracketleft
ENCODING 91
SWIDTH 344 0
DWIDTH 4 0
BBX 3 12 1 -2
BITMAP
E0
80
80
80
80
80
80
80
80
80
80
E0
ENDCHAR

STARTCHAR backslash
ENCODING 92
SWIDTH 510 0
DWIDTH 7 0
BBX 5 10 1 0
BITMAP
80
80
40
40
20
20
10
10
08
08
ENDCHAR

STARTCHAR bracketright
ENCODING 93
SWIDTH 344 0
DWIDTH 4 0
BBX 3 12 1 -2
BITMAP
E0
20
20
20
20
20
20
20
20
20
20
E0
ENDCHAR

STARTCHAR asciicircum
ENCODING 94
SWIDTH 469 0
DWIDTH 6 0
BBX 5 4 1 6
BITMAP
20
20
50
88
ENDCHAR

STARTCHAR underscore
ENCODING 95
SWIDTH 500 0
DWIDTH 7 0
BBX 7 1 0 -3
BITMAP
FE
ENDCHAR

STARTCHAR quoteleft
ENCODING 96
SWIDTH 281 0
DWIDTH 4 0
BBX 2 4 1 6
BITMAP
40
80
80
80
ENDCHAR

STARTCHAR a
ENCODING 97
SWIDTH 563 0
DWIDTH 7 0
BBX 6 7 1 0
BITMAP
70
88
18
68
88
98
6C
ENDCHAR

STARTCHAR b
ENCODING 98
SWIDTH 594 0
DWIDTH 8 0
BBX 7 10 1 0
BITMAP
C0
40
40
5C
62
42
42
42
62
5C
ENDCHAR

STARTCHAR c
ENCODING 99
SWIDTH 510 0
DWIDTH 7 0
BBX 6 7 1 0
BITMAP
78
84
84
80
80
84
78
ENDCHAR

STARTCHAR d
ENCODING 100
SWIDTH 594 0
DWIDTH 8 0
BBX 7 10 1 0
BITMAP
0C
04
04
74
8C
84
84
84
8C
76
ENDCHAR

STARTCHAR e
ENCODING 101
SWIDTH 521 0
DWIDTH 7 0
BBX 6 7 1 0
BITMAP
78
84
84
FC
80
84
78
ENDCHAR

STARTCHAR f
ENCODING 102
SWIDTH 344 0
DWIDTH 4 0
BBX 5 10 1 0
BITMAP
30
48
40
E0
40
40
40
40
40
E0
ENDCHAR

STARTCHAR g
ENCODING 103
SWIDTH 552 0
DWIDTH 7 0
BBX 6 9 1 -2
BITMAP
7C
88
88
70
80
78
84
84
78
ENDCHAR

STARTCHAR h
ENCODING 104
SWIDTH 646 0
DWIDTH 8 0
BBX 7 10 1 0
BITMAP
C0
40
40
58
64
44
44
44
44
EE
ENDCHAR

STARTCHAR i
ENCODING 105
SWIDTH 365 0
DWIDTH 4 0
BBX 3 10 1 0
BITMAP
40
40
00
C0
40
40
40
40
40
E0
ENDCHAR

STARTCHAR j
ENCODING 106
SWIDTH 323 0
DWIDTH 4 0
BBX 4 12 -1 -2
BITMAP
10
10
00
30
10
10
10
10
10
10
90
60
ENDCHAR

STARTCHAR k
ENCODING 107
SWIDTH 625 0
DWIDTH 8 0
BBX 7 10 1 0
BITMAP
C0
40
40
4E
44
58
70
48
44
EE
ENDCHAR

STARTCHAR l
ENCODING 108
SWIDTH 333 0
DWIDTH 4 0
BBX 3 10 1 0
BITMAP
C0
40
40
40
40
40
40
40
40
E0
ENDCHAR

STARTCHAR m
ENCODING 109
SWIDTH 938 0
DWIDTH 12 0
BBX 11 7 1 0
BITMAP
D980
6640
4440
4440
4440
4440
EEE0
ENDCHAR

STARTCHAR n
ENCODING 110
SWIDTH 646 0
DWIDTH 8 0
BBX 7 7 1 0
BITMAP
D8
64
44
44
44
44
EE
ENDCHAR

STARTCHAR o
ENCODING 111
SWIDTH 562 0
DWIDTH 7 0
BBX 6 7 1 0
BITMAP
78
84
84
84
84
84
78
ENDCHAR

STARTCHAR p
ENCODING 112
SWIDTH 594 0
DWIDTH 8 0
BBX 7 9 1 -2
BITMAP
DC
62
42
42
42
62
5C
40
E0
ENDCHAR

STARTCHAR q
ENCODING 113
SWIDTH 594 0
DWIDTH 8 0
BBX 7 9 1 -2
BITMAP
74
8C
84
84
84
8C
74
04
0E
ENDCHAR

STARTCHAR r
ENCODING 114
SWIDTH 490 0
DWIDTH 6 0
BBX 5 7 1 0
BITMAP
D8
68
40
40
40
40
E0
ENDCHAR

STARTCHAR s
ENCODING 115
SWIDTH 479 0
DWIDTH 6 0
BBX 5 7 1 0
BITMAP
78
88
80
70
08
88
F0
ENDCHAR

STARTCHAR t
ENCODING 116
SWIDTH 375 0
DWIDTH 5 0
BBX 4 10 1 0
BITMAP
40
40
40
F0
40
40
40
40
50
60
ENDCHAR

STARTCHAR u
ENCODING 117
SWIDTH 646 0
DWIDTH 8 0
BBX 7 7 1 0
BITMAP
CC
44
44
44
44
4C
36
ENDCHAR

STARTCHAR v
ENCODING 118
SWIDTH 594 0
DWIDTH 8 0
BBX 7 7 1 0
BITMAP
EE
44
44
28
28
10
10
ENDCHAR

STARTCHAR w
ENCODING 119
SWIDTH 833 0
DWIDTH 11 0
BBX 11 7 0 0
BITMAP
EEE0
4440
4A40
2A80
2A80
1100
1100
ENDCHAR

STARTCHAR x
ENCODING 120
SWIDTH 583 0
DWIDTH 8 0
BBX 7 7 1 0
BITMAP
EE
44
28
10
28
44
EE
ENDCHAR

STARTCHAR y
ENCODING 121
SWIDTH 594 0
DWIDTH 8 0
BBX 7 9 1 -2
BITMAP
EE
44
44
48
28
30
10
A0
C0
ENDCHAR

STARTCHAR z
ENCODING 122
SWIDTH 479 0
DWIDTH 7 0
BBX 6 7 1 0
BITMAP
FC
84
88
10
24
44
FC
ENDCHAR

STARTCHAR braceleft
ENCODING 123
SWIDTH 479 0
DWIDTH 6 0
BBX 3 12 2 -2
BITMAP
20
40
40
40
40
80
80
40
40
40
40
20
ENDCHAR

STARTCHAR bar
ENCODING 124
SWIDTH 510 0
DWIDTH 7 0
BBX 1 10 3 0
BITMAP
80
80
80
80
80
80
80
80
80
80
ENDCHAR

STARTCHAR braceright
ENCODING 125
SWIDTH 479 0
DWIDTH 6 0
BBX 3 12 2 -2
BITMAP
80
40
40
40
40
20
20
40
40
40
40
80
ENDCHAR

STARTCHAR asciitilde
ENCODING 126
SWIDTH 667 0
DWIDTH 9 0
BBX 8 2 1 3
BITMAP
71
8E
ENDCHAR

STARTCHAR space
ENCODING 160
SWIDTH 250 0
DWIDTH 4 0
BBX 0 0 0 0
BITMAP
ENDCHAR

STARTCHAR afii10023
ENCODING 161
SWIDTH 698 0
DWIDTH 9 0
BBX 7 13 1 0
BITMAP
24
24
00
FE
42
42
48
78
48
40
42
42
FE
ENDCHAR

STARTCHAR afii10051
ENCODING 162
SWIDTH 875 0
DWIDTH 12 0
BBX 11 10 0 0
BITMAP
FF80
8880
8880
0800
0BC0
0C20
0820
0820
0820
1CC0
ENDCHAR

STARTCHAR afii10052
ENCODING 163
SWIDTH 635 0
DWIDTH 8 0
BBX 7 13 1 0
BITMAP
08
10
00
FE
42
42
40
40
40
40
40
40
E0
ENDCHAR

STARTCHAR afii10053
ENCODING 164
SWIDTH 698 0
DWIDTH 10 0
BBX 8 10 1 0
BITMAP
1E
63
41
80
F8
80
81
41
63
1C
ENDCHAR

STARTCHAR afii10054
ENCODING 165
SWIDTH 594 0
DWIDTH 8 0
BBX 6 10 1 0
BITMAP
78
84
84
80
60
18
04
84
84
78
ENDCHAR

STARTCHAR afii10055
ENCODING 166
SWIDTH 385 0
DWIDTH 5 0
BBX 3 10 1 0
BITMAP
E0
40
40
40
40
40
40
40
40
E0
ENDCHAR

STARTCHAR afii10056
ENCODING 167
SWIDTH 385 0
DWIDTH 5 0
BBX 4 13 1 0
BITMAP
90
90
00
E0
40
40
40
40
40
40
40
40
E0
ENDCHAR

STARTCHAR afii10057
ENCODING 168
SWIDTH 573 0
DWIDTH 7 0
BBX 6 10 0 0
BITMAP
1C
08
08
08
08
08
48
C8
88
70
ENDCHAR

STARTCHAR afii10058
ENCODING 169
SWIDTH 1092 0
DWIDTH 14 0
BBX 13 10 0 0
BITMAP
3F80
1100
1100
1100
11F0
1108
5108
D108
9108
63F0
ENDCHAR

STARTCHAR afii10059
ENCODING 170
SWIDTH 1089 0
DWIDTH 15 0
BBX 13 10 1 0
BITMAP
E380
4100
4100
4100
7FF0
4108
4108
4108
4108
E3F0
ENDCHAR

STARTCHAR afii10060
ENCODING 171
SWIDTH 885 0
DWIDTH 12 0
BBX 11 10 0 0
BITMAP
FF80
8880
8880
0800
0B80
0C40
0840
0840
0840
1CE0
ENDCHAR

STARTCHAR afii10061
ENCODING 172
SWIDTH 759 0
DWIDTH 10 0
BBX 8 13 1 0
BITMAP
08
10
00
E3
45
44
48
48
74
44
42
42
E3
ENDCHAR

STARTCHAR hyphen
ENCODING 173
SWIDTH 281 0
DWIDTH 4 0
BBX 2 1 1 3
BITMAP
C0
ENDCHAR

STARTCHAR afii10062
ENCODING 174
SWIDTH 732 0
DWIDTH 10 0
BBX 9 13 1 0
BITMAP
1200
0C00
0000
E380
4100
2100
2200
1200
0A00
0C00
0400
4800
3000
ENDCHAR

STARTCHAR afii10145
ENCODING 175
SWIDTH 823 0
DWIDTH 11 0
BBX 9 12 1 -2
BITMAP
E380
4100
4100
4100
4100
4100
4100
4100
4100
FF80
0800
0800
ENDCHAR

STARTCHAR afii10017
ENCODING 176
SWIDTH 792 0
DWIDTH 9 0
BBX 9 10 0 0
BITMAP
0800
0800
1400
1400
2200
2200
3E00
4100
4100
E380
ENDCHAR

STARTCHAR afii10018
ENCODING 177
SWIDTH 701 0
DWIDTH 9 0
BBX 7 10 1 0
BITMAP
FE
42
42
40
7C
42
42
42
42
FC
ENDCHAR

STARTCHAR afii10019
ENCODING 178
SWIDTH 719 0
DWIDTH 9 0
BBX 7 10 1 0
BITMAP
FC
42
42
42
7C
42
42
42
42
FC
ENDCHAR

STARTCHAR afii10020
ENCODING 179
SWIDTH 635 0
DWIDTH 8 0
BBX 7 10 1 0
BITMAP
FE
42
42
40
40
40
40
40
40
E0
ENDCHAR

STARTCHAR afii10021
ENCODING 180
SWIDTH 760 0
DWIDTH 10 0
BBX 9 12 0 -2
BITMAP
7F80
2100
2100
2100
2100
2100
2100
4100
4100
FF80
8080
8080
ENDCHAR

STARTCHAR afii10022
ENCODING 181
SWIDTH 698 0
DWIDTH 9 0
BBX 7 10 1 0
BITMAP
FE
42
42
48
78
48
40
42
42
FE
ENDCHAR

STARTCHAR afii10024
ENCODING 182
SWIDTH 1115 0
DWIDTH 13 0
BBX 13 10 0 0
BITMAP
C718
A228
2220
1240
1FC0
1240
2220
2220
4210
C718
ENDCHAR

STARTCHAR afii10025
ENCODING 183
SWIDTH 601 0
DWIDTH 9 0
BBX 7 10 1 0
BITMAP
F8
84
82
04
18
04
02
82
84
78
ENDCHAR

STARTCHAR afii10026
ENCODING 184
SWIDTH 823 0
DWIDTH 11 0
BBX 9 10 1 0
BITMAP
E380
4100
4100
4300
4500
4900
5100
6100
4100
E380
ENDCHAR

STARTCHAR afii10027
ENCODING 185
SWIDTH 823 0
DWIDTH 11 0
BBX 9 13 1 0
BITMAP
1200
0C00
0000
E380
4100
4100
4300
4500
4900
5100
6100
4100
E380
ENDCHAR

STARTCHAR afii10028
ENCODING 186
SWIDTH 759 0
DWIDTH 10 0
BBX 8 10 1 0
BITMAP
E3
45
44
48
48
74
44
42
42
E3
ENDCHAR

STARTCHAR afii10029
ENCODING 187
SWIDTH 789 0
DWIDTH 10 0
BBX 9 10 0 0
BITMAP
3F80
1100
1100
1100
1100
1100
5100
D100
9100
6380
ENDCHAR

STARTCHAR afii10030
ENCODING 188
SWIDTH 979 0
DWIDTH 13 0
BBX 11 10 1 0
BITMAP
C060
60C0
60C0
5140
5140
4A40
4A40
4A40
4440
E4E0
ENDCHAR

STARTCHAR afii10031
ENCODING 189
SWIDTH 812 0
DWIDTH 11 0
BBX 9 10 1 0
BITMAP
E380
4100
4100
4100
7F00
4100
4100
4100
4100
E380
ENDCHAR

STARTCHAR afii10032
ENCODING 190
SWIDTH 767 0
DWIDTH 11 0
BBX 9 10 1 0
BITMAP
1C00
6300
4100
8080
8080
8080
8080
4100
6300
1C00
ENDCHAR

STARTCHAR afii10033
ENCODING 191
SWIDTH 823 0
DWIDTH 11 0
BBX 9 10 1 0
BITMAP
FF80
4100
4100
4100
4100
4100
4100
4100
4100
E380
ENDCHAR

STARTCHAR afii10034
ENCODING 192
SWIDTH 662 0
DWIDTH 9 0
BBX 7 10 1 0
BITMAP
FC
42
42
42
7C
40
40
40
40
E0
ENDCHAR

STARTCHAR afii10035
ENCODING 193
SWIDTH 694 0
DWIDTH 9 0
BBX 8 10 1 0
BITMAP
1F
61
41
80
80
80
80
41
62
1C
ENDCHAR

STARTCHAR afii10036
ENCODING 194
SWIDTH 688 0
DWIDTH 9 0
BBX 9 10 0 0
BITMAP
7F00
C980
8880
0800
0800
0800
0800
0800
0800
1C00
ENDCHAR

STARTCHAR afii10037
ENCODING 195
SWIDTH 732 0
DWIDTH 10 0
BBX 9 10 1 0
BITMAP
E380
4100
2100
2200
1200
0A00
0C00
0400
4800
3000
ENDCHAR

STARTCHAR afii10038
ENCODING 196
SWIDTH 799 0
DWIDTH 11 0
BBX 9 10 1 0
BITMAP
1C00
0800
7F00
8880
8880
8880
8880
7F00
0800
1C00
ENDCHAR

STARTCHAR afii10039
ENCODING 197
SWIDTH 729 0
DWIDTH 9 0
BBX 9 10 0 0
BITMAP
E380
4100
2200
1400
0800
0800
1400
2200
4100
E380
ENDCHAR

STARTCHAR afii10040
ENCODING 198
SWIDTH 823 0
DWIDTH 11 0
BBX 9 12 1 -2
BITMAP
E380
4100
4100
4100
4100
4100
4100
4100
4100
FF80
0080
0080
ENDCHAR

STARTCHAR afii10041
ENCODING 199
SWIDTH 761 0
DWIDTH 10 0
BBX 8 10 1 0
BITMAP
E7
42
42
42
46
3A
02
02
02
07
ENDCHAR

STARTCHAR afii10042
ENCODING 200
SWIDTH 1073 0
DWIDTH 13 0
BBX 11 10 1 0
BITMAP
EEE0
4440
4440
4440
4440
4440
4440
4440
4440
FFE0
ENDCHAR

STARTCHAR afii10043
ENCODING 201
SWIDTH 1073 0
DWIDTH 13 0
BBX 11 12 1 -2
BITMAP
EEE0
4440
4440
4440
4440
4440
4440
4440
4440
FFE0
0020
0020
ENDCHAR

STARTCHAR afii10044
ENCODING 202
SWIDTH 879 0
DWIDTH 11 0
BBX 10 10 0 0
BITMAP
FC00
8800
8800
0800
0F80
0840
0840
0840
0840
1F80
ENDCHAR

STARTCHAR afii10045
ENCODING 203
SWIDTH 1042 0
DWIDTH 13 0
BBX 11 10 1 0
BITMAP
E0E0
4040
4040
4040
7C40
4240
4240
4240
4240
FCE0
ENDCHAR

STARTCHAR afii10046
ENCODING 204
SWIDTH 704 0
DWIDTH 9 0
BBX 7 10 1 0
BITMAP
E0
40
40
40
7C
42
42
42
42
FC
ENDCHAR

STARTCHAR afii10047
ENCODING 205
SWIDTH 698 0
DWIDTH 10 0
BBX 8 10 1 0
BITMAP
78
C6
82
01
1F
01
81
82
C6
38
ENDCHAR

STARTCHAR afii10048
ENCODING 206
SWIDTH 1104 0
DWIDTH 15 0
BBX 13 10 1 0
BITMAP
E1C0
4630
4410
4808
7808
4808
4808
4410
4630
E1C0
ENDCHAR

STARTCHAR afii10049
ENCODING 207
SWIDTH 729 0
DWIDTH 9 0
BBX 8 10 0 0
BITMAP
3F
42
42
42
3E
12
22
22
42
C7
ENDCHAR

STARTCHAR afii10065
ENCODING 208
SWIDTH 563 0
DWIDTH 7 0
BBX 6 7 1 0
BITMAP
70
88
18
68
88
98
6C
ENDCHAR

STARTCHAR afii10066
ENCODING 209
SWIDTH 567 0
DWIDTH 7 0
BBX 6 10 1 0
BITMAP
04
78
80
B8
C4
84
84
84
84
78
ENDCHAR

STARTCHAR afii10067
ENCODING 210
SWIDTH 559 0
DWIDTH 7 0
BBX 6 7 1 0
BITMAP
F8
44
44
78
44
44
F8
ENDCHAR

STARTCHAR afii10068
ENCODING 211
SWIDTH 504 0
DWIDTH 7 0
BBX 6 7 1 0
BITMAP
FC
44
44
40
40
40
E0
ENDCHAR

STARTCHAR afii10069
ENCODING 212
SWIDTH 616 0
DWIDTH 8 0
BBX 7 9 1 -2
BITMAP
7E
24
24
24
44
44
FE
82
82
ENDCHAR

STARTCHAR afii10070
ENCODING 213
SWIDTH 513 0
DWIDTH 7 0
BBX 6 7 1 0
BITMAP
78
84
84
FC
80
84
78
ENDCHAR

STARTCHAR afii10072
ENCODING 214
SWIDTH 844 0
DWIDTH 12 0
BBX 11 7 1 0
BITMAP
CE60
A4A0
2480
1F00
2480
4440
CE60
ENDCHAR

STARTCHAR afii10073
ENCODING 215
SWIDTH 479 0
DWIDTH 6 0
BBX 5 7 1 0
BITMAP
F0
88
88
30
08
88
70
ENDCHAR

STARTCHAR afii10074
ENCODING 216
SWIDTH 646 0
DWIDTH 8 0
BBX 7 7 1 0
BITMAP
EE
44
4C
54
64
44
EE
ENDCHAR

STARTCHAR afii10075
ENCODING 217
SWIDTH 646 0
DWIDTH 8 0
BBX 7 10 1 0
BITMAP
24
18
00
EE
44
4C
54
64
44
EE
ENDCHAR

STARTCHAR afii10076
ENCODING 218
SWIDTH 602 0
DWIDTH 8 0
BBX 7 7 1 0
BITMAP
E6
4A
48
70
48
44
E6
ENDCHAR

STARTCHAR afii10077
ENCODING 219
SWIDTH 639 0
DWIDTH 8 0
BBX 8 7 0 0
BITMAP
7F
22
22
22
22
A2
C7
ENDCHAR

STARTCHAR afii10078
ENCODING 220
SWIDTH 784 0
DWIDTH 10 0
BBX 9 7 1 0
BITMAP
C180
6300
6300
5500
5500
4900
EB80
ENDCHAR

STARTCHAR afii10079
ENCODING 221
SWIDTH 646 0
DWIDTH 8 0
BBX 7 7 1 0
BITMAP
EE
44
44
7C
44
44
EE
ENDCHAR

STARTCHAR afii10080
ENCODING 222
SWIDTH 548 0
DWIDTH 7 0
BBX 6 7 1 0
BITMAP
78
84
84
84
84
84
78
ENDCHAR

STARTCHAR afii10081
ENCODING 223
SWIDTH 646 0
DWIDTH 8 0
BBX 7 7 1 0
BITMAP
FE
44
44
44
44
44
EE
ENDCHAR

STARTCHAR afii10082
ENCODING 224
SWIDTH 594 0
DWIDTH 8 0
BBX 7 9 1 -2
BITMAP
DC
62
42
42
42
62
5C
40
E0
ENDCHAR

STARTCHAR afii10083
ENCODING 225
SWIDTH 500 0
DWIDTH 7 0
BBX 6 7 1 0
BITMAP
78
84
84
80
80
84
78
ENDCHAR

STARTCHAR afii10084
ENCODING 226
SWIDTH 552 0
DWIDTH 7 0
BBX 7 7 0 0
BITMAP
7C
92
92
10
10
10
38
ENDCHAR

STARTCHAR afii10085
ENCODING 227
SWIDTH 573 0
DWIDTH 8 0
BBX 7 9 1 -2
BITMAP
EE
44
44
48
28
30
10
A0
C0
ENDCHAR

STARTCHAR afii10086
ENCODING 228
SWIDTH 746 0
DWIDTH 10 0
BBX 9 12 1 -2
BITMAP
0800
1800
0800
6B00
9C80
8880
8880
8880
9C80
6B00
0800
1C00
ENDCHAR

STARTCHAR afii10087
ENCODING 229
SWIDTH 583 0
DWIDTH 8 0
BBX 7 7 1 0
BITMAP
EE
44
28
10
28
44
EE
ENDCHAR

STARTCHAR afii10088
ENCODING 230
SWIDTH 646 0
DWIDTH 8 0
BBX 7 9 1 -2
BITMAP
EE
44
44
44
44
44
FE
02
02
ENDCHAR

STARTCHAR afii10089
ENCODING 231
SWIDTH 625 0
DWIDTH 8 0
BBX 7 7 1 0
BITMAP
EE
44
4C
34
04
04
0E
ENDCHAR

STARTCHAR afii10090
ENCODING 232
SWIDTH 927 0
DWIDTH 12 0
BBX 11 7 1 0
BITMAP
EEE0
4440
4440
4440
4440
4440
FFE0
ENDCHAR

STARTCHAR afii10091
ENCODING 233
SWIDTH 927 0
DWIDTH 12 0
BBX 11 9 1 -2
BITMAP
EEE0
4440
4440
4440
4440
4440
FFE0
0020
0020
ENDCHAR

STARTCHAR afii10092
ENCODING 234
SWIDTH 695 0
DWIDTH 8 0
BBX 8 7 0 0
BITMAP
F8
90
90
1E
11
11
3E
ENDCHAR

STARTCHAR afii10093
ENCODING 235
SWIDTH 833 0
DWIDTH 10 0
BBX 9 7 1 0
BITMAP
E380
4100
4100
7900
4500
4500
FB80
ENDCHAR

STARTCHAR afii10094
ENCODING 236
SWIDTH 565 0
DWIDTH 7 0
BBX 6 7 1 0
BITMAP
E0
40
40
78
44
44
F8
ENDCHAR

STARTCHAR afii10095
ENCODING 237
SWIDTH 490 0
DWIDTH 6 0
BBX 5 7 1 0
BITMAP
F0
88
88
38
08
88
70
ENDCHAR

STARTCHAR afii10096
ENCODING 238
SWIDTH 833 0
DWIDTH 11 0
BBX 10 7 1 0
BITMAP
E780
4840
4840
7840
4840
4840
E780
ENDCHAR

STARTCHAR afii10097
ENCODING 239
SWIDTH 577 0
DWIDTH 7 0
BBX 7 7 0 0
BITMAP
3E
44
44
3C
24
44
CE
ENDCHAR

STARTCHAR afii61352
ENCODING 240
SWIDTH 1053 0
DWIDTH 13 0
BBX 13 10 0 0
BITMAP
60C0
3140
3100
2930
2948
2548
2548
2330
A300
C178
ENDCHAR

STARTCHAR afii10071
ENCODING 241
SWIDTH 513 0
DWIDTH 7 0
BBX 6 10 1 0
BITMAP
48
48
00
78
84
84
FC
80
84
78
ENDCHAR

STARTCHAR afii10099
ENCODING 242
SWIDTH 574 0
DWIDTH 8 0
BBX 6 12 1 -2
BITMAP
40
F8
40
58
64
44
44
44
44
E4
04
08
ENDCHAR

STARTCHAR afii10100
ENCODING 243
SWIDTH 504 0
DWIDTH 7 0
BBX 6 10 1 0
BITMAP
10
20
00
FC
44
44
40
40
40
E0
ENDCHAR

STARTCHAR afii10101
ENCODING 244
SWIDTH 500 0
DWIDTH 6 0
BBX 5 7 1 0
BITMAP
78
88
88
E0
80
88
70
ENDCHAR

STARTCHAR afii10102
ENCODING 245
SWIDTH 458 0
DWIDTH 6 0
BBX 5 7 1 0
BITMAP
78
88
80
70
08
88
F0
ENDCHAR

STARTCHAR afii10103
ENCODING 246
SWIDTH 354 0
DWIDTH 4 0
BBX 3 10 1 0
BITMAP
40
40
00
C0
40
40
40
40
40
E0
ENDCHAR

STARTCHAR afii10104
ENCODING 247
SWIDTH 354 0
DWIDTH 4 0
BBX 4 10 0 0
BITMAP
90
90
00
60
20
20
20
20
20
70
ENDCHAR

STARTCHAR afii10105
ENCODING 248
SWIDTH 323 0
DWIDTH 4 0
BBX 4 12 -1 -2
BITMAP
10
10
00
30
10
10
10
10
10
10
90
60
ENDCHAR

STARTCHAR afii10106
ENCODING 249
SWIDTH 887 0
DWIDTH 11 0
BBX 11 7 0 0
BITMAP
7F00
2200
2200
23C0
2220
A220
C7C0
ENDCHAR

STARTCHAR afii10107
ENCODING 250
SWIDTH 888 0
DWIDTH 11 0
BBX 10 7 1 0
BITMAP
EE00
4400
4400
7F80
4440
4440
EF80
ENDCHAR

STARTCHAR afii10108
ENCODING 251
SWIDTH 635 0
DWIDTH 8 0
BBX 7 10 1 0
BITMAP
40
F8
40
58
64
44
44
44
44
EE
ENDCHAR

STARTCHAR afii10109
ENCODING 252
SWIDTH 602 0
DWIDTH 8 0
BBX 7 10 1 0
BITMAP
08
10
00
E6
4A
48
70
48
44
E6
ENDCHAR

STARTCHAR section
ENCODING 253
SWIDTH 490 0
DWIDTH 7 0
BBX 5 13 1 -2
BITMAP
70
98
88
40
60
90
88
48
30
10
88
C8
70
ENDCHAR

STARTCHAR afii10110
ENCODING 254
SWIDTH 573 0
DWIDTH 8 0
BBX 7 12 1 -2
BITMAP
24
18
00
EE
44
44
48
28
30
10
A0
C0
ENDCHAR

STARTCHAR afii10193
ENCODING 255
SWIDTH 646 0
DWIDTH 8 0
BBX 7 9 1 -2
BITMAP
EE
44
44
44
44
44
FE
10
10
ENDCHAR
ENDFONT
